# xmcd
#
# Track frame offsets:
#	150
#	15297
#	26868
#	37148
#	49130
#	62906
#	75241
#	89486
#	102614
#	119487
#
# Disc length: 1729 seconds
#
# Revision: 0
# Processed by: cddbd v1.5.2PL0 Copyright (c) Steve Scherf et al.
# Submitted via: EasyCDDAExtractor 10.0.2.1
#
DISCID=8206bf0a
DTITLE=Andrea Saunooke
DYEAR=1900
DGENRE=
TTITLE0=I Wasn't There
TTITLE1=He Is Not Dead
TTITLE2=I Heard A Sweet Voice
TTITLE3=A Rose Among The Thorns
TTITLE4=Not Of Myself
TTITLE5=Every Hour
TTITLE6=Land Of the Living
TTITLE7=Here Today, Home Tomorrow
TTITLE8=The Greatest Of All Miracles
TTITLE9=He's Still In The Fire
EXTD=
EXTT0=
EXTT1=
EXTT2=
EXTT3=
EXTT4=
EXTT5=
EXTT6=
EXTT7=
EXTT8=
EXTT9=
PLAYORDER=
